<?xml version="1.0" encoding="UTF-8"?>
<svg id="Layer_2" data-name="Layer 2" xmlns="http://www.w3.org/2000/svg" xmlns:xlink="http://www.w3.org/1999/xlink" viewBox="0 0 4080.98 482.76">
  <defs>
    <style>
      .cls-1 {
        fill: url(#linear-gradient);
      }

      .cls-1, .cls-2, .cls-3 {
        stroke-width: 0px;
      }

      .cls-2 {
        fill: url(#linear-gradient-2);
      }

      .cls-3 {
        fill: #5c198d;
      }
    </style>
    <linearGradient id="linear-gradient" x1="690.39" y1="482.76" x2="690.39" y2="2.93" gradientUnits="userSpaceOnUse">
      <stop offset=".2" stop-color="#5c198d"/>
      <stop offset=".26" stop-color="#73189d"/>
      <stop offset=".44" stop-color="#bb17ce"/>
      <stop offset=".52" stop-color="#d717e2"/>
      <stop offset=".87" stop-color="#5c198d"/>
    </linearGradient>
    <linearGradient id="linear-gradient-2" x1="3526.19" y1="475.71" x2="3526.19" y2=".13" xlink:href="#linear-gradient"/>
  </defs>
  <g id="Layer_4" data-name="Layer 4">
    <g>
      <g>
        <path class="cls-3" d="m3807.71,2.88h1.2c17.43,0,31.57,14.15,31.57,31.57v307.17c0,17.43-14.15,31.57-31.57,31.57h-1.2c-17.43,0-31.57-14.15-31.57-31.57V34.45c0-17.43,14.15-31.57,31.57-31.57Z"/>
        <path class="cls-3" d="m1798.36,271.21c12.79-7.17,23.86-15.89,33-26,12.56-14.04,21.84-30.17,27.61-47.98,5.42-17.2,8.17-35.05,8.17-53.05,0-24.46-4.82-46.07-14.34-64.22-9.37-17.78-21.9-32.67-37.26-44.28-14.98-11.24-31.76-19.64-49.91-24.97-17.83-5.2-36-7.83-54-7.83h-85.54c-17.41,0-31.57,14.16-31.57,31.57s14.16,31.57,31.57,31.57h89.88c13.39,0,25.62,2.21,36.37,6.58,10.51,4.22,19.65,10.04,27.11,17.23,7.4,7.32,13.09,15.73,16.9,24.96,3.84,9.48,5.79,19.8,5.79,30.68,0,9.42-1.51,19.29-4.46,29.28-2.93,9.6-7.79,18.51-14.44,26.47-6.51,7.77-15.79,14.28-27.6,19.34-12.29,5.27-28.34,7.94-47.7,7.94h-81.86c-17.41,0-31.57,14.17-31.57,31.58v184.11c0,17.41,14.16,31.57,31.57,31.57h1.18c17.42,0,31.59-14.16,31.59-31.57v-152.53h50.93c8.55,0,16.71-.38,24.31-1.13l104.62,170.01c5.72,9.53,15.8,15.22,26.98,15.22h1.2c11.56,0,21.86-6.02,27.54-16.11,5.68-10.1,5.48-22.04-.54-31.94l-95.54-156.5Z"/>
        <path class="cls-3" d="m2142.29,2.88h-1.73c-17.23,0-31.26,14.02-31.26,31.24v410.29c0,17.29,14.02,31.36,31.26,31.36h1.73c17.29,0,31.36-14.07,31.36-31.36V34.12c0-17.23-14.07-31.24-31.36-31.24Z"/>
        <path class="cls-3" d="m2437.21,2.88h-1.74c-17.29,0-31.35,14.02-31.35,31.24v172.7h-160.24c-17.29,0-31.35,14.02-31.35,31.25s14.06,31.36,31.35,31.36h160.24v174.97c0,17.29,14.06,31.36,31.35,31.36h1.74c17.23,0,31.26-14.07,31.26-31.36V34.12c0-17.23-14.02-31.24-31.26-31.24Z"/>
        <path class="cls-3" d="m281.82,412.61H64.35v-143.18h184.74c17.41,0,31.57-14.17,31.57-31.58s-14.16-31.57-31.57-31.57l-217.52-.1c-17.41,0-31.57,14.16-31.57,31.57v206.44c0,17.41,14.16,31.57,31.57,31.57h250.25c17.41,0,31.57-14.16,31.57-31.57s-14.16-31.58-31.57-31.58Z"/>
        <path class="cls-3" d="m1357.84,412.61h-217.48v-143.18h184.73c17.42,0,31.58-14.17,31.58-31.58s-14.17-31.57-31.58-31.57l-217.5-.1c-17.41,0-31.57,14.16-31.57,31.57v206.44c0,17.41,14.16,31.57,31.57,31.57h250.25c17.41,0,31.57-14.16,31.57-31.57s-14.16-31.58-31.57-31.58Z"/>
        <path class="cls-3" d="m1349.18,65.97c17.41,0,31.57-14.12,31.57-31.47s-14.16-31.58-31.57-31.58h-247.53l-1.2.05c-33.83,2.85-66.91,10.21-98.33,21.85l-6.63,2.4c-19.72,7.73-39.01,17.33-57.36,28.56-40.25,24.67-76.54,57.84-107.88,98.61-7.96,10.44-16.11,23.11-24.9,38.75l-.07.12c-.31.57-.61,1.12-.92,1.67l-.07.13c-.43.77-.86,1.54-1.22,2.21-14.99,27.2-29.55,59.03-43.63,89.82l-.92,2.01-2.67,3.54v2.33l-.32.69c-4.15,9.11-8.86,19.44-14.02,30.33l-.26.59c-.46,1.11-1.03,2.33-1.58,3.53-13.45,28.42-24.58,49.74-34.05,65.16-9.85,16.05-15.8,22.18-18.49,24.42-4.66-3.78-19.41-20.11-52.24-89.46-.67-1.46-1.38-2.98-2.03-4.29-4.3-9.17-8.49-18.36-12.2-26.46l-5.19-11.56c-13.11-28.96-27.96-61.78-43.87-90.57l-.2-.38c-.69-1.27-1.47-2.71-2.21-3.99-8.98-15.95-17.11-28.6-24.87-38.66-31.31-40.62-67.46-73.77-107.47-98.54-18.58-11.46-37.87-21.18-57.34-28.89l-1.34-.47c-31.18-12.19-64.2-20.08-98.13-23.45l-.71-.07H31.6C14.18,2.93.02,17.09.02,34.51s14.17,31.47,31.57,31.47l230.52.11c24.97,0,48.64,3.36,70.31,9.97,6.13,1.92,11.14,3.64,15.77,5.39l.1.04c55.48,20.21,104.19,57.28,144.78,110.18,3.35,4.38,7.01,9.69,11.19,16.24l.08.12c.32.47.66,1.05,1.02,1.67l.07.13c.37.63.74,1.26,1.1,1.85,17.19,28.13,34.62,66.48,51.49,103.59l.75,1.65c1.98,4.28,3.92,8.52,5.83,12.68l3.94,8.59c.21.45.41.91.61,1.39.44,1.01.84,1.93,1.3,2.88,37.84,81.82,68.39,139.77,116.9,140.32h.08s.08,0,.08,0c25.31-.27,46.67-15.57,69.3-49.63,14.79-22.57,29.65-52.63,47.42-90.83l.24-.55c.45-1.08,1.02-2.32,1.66-3.7,3.01-6.63,6.06-13.27,9.75-21.23l.18-.39c17.03-37.58,34.64-76.43,52.02-104.74l.42-.73c.48-.89,1.07-1.88,1.83-3.01l.21-.33c3.43-5.53,7.14-10.91,11.01-15.97,40.35-52.68,89-89.76,144.63-110.2,11.39-4.21,23.28-7.75,35.35-10.54,14.14-3.28,29.65-4.94,46.09-4.94h241.57Z"/>
        <path class="cls-3" d="m2729.31,66.03h241.56c17.42,0,31.59-14.16,31.59-31.57s-14.17-31.57-31.59-31.57h-241.56c-17.41,0-31.57,14.16-31.57,31.57s14.16,31.57,31.57,31.57Z"/>
        <path class="cls-3" d="m4080.98,444.37c0,.5-.01.99-.04,1.49-.85,16.61-14.66,29.85-31.53,29.85h-249.6c-4.2,0-41.17-7.56-56.87-12.19l-1.03-.33c-13.41-3.62-25.07-7.32-36.65-11.63l-1.25-.4c-17.81-6.7-35.01-14.81-51.12-24.1-44.27-25.05-83.69-59.54-117.13-102.49-7.11-9.09-14.6-20.48-22.9-34.8l-.74-1.28c-.61-1.02-1.22-2.06-1.81-3.15-16.01-28.36-31.57-61.86-45.34-91.58l-2.93-6.46c-3.62-8-8.15-17.77-14.19-30.56-.54-1.07-1.11-2.28-1.78-3.73l-.27-.58c-13.49-28.25-24.74-49.56-34.37-65.07-10.4-16.76-16.46-22.74-19.05-24.77-4.48,3.53-19.29,19.48-52.9,89.98l-.21.45c-.53,1.14-1.19,2.56-1.86,3.88-3.44,7.25-6.75,14.39-9.94,21.3l-.85,1.83c-.9,1.95-1.79,3.88-2.67,5.76l-3.37,7.4c-14.91,32.62-29.63,64.21-45.42,92.3l-.28.49c-.73,1.17-1.36,2.26-1.98,3.42l-.26.45c-8.3,14.13-15.8,25.47-22.92,34.68-33.58,43.09-72.91,77.6-116.91,102.58-15.97,9.12-33.43,17.29-51.89,24.26l-1.33.5-.61.1c-11.89,4.54-23.38,7.77-34.15,10.7-.83.29-1.81.6-2.98.92-15.21,4.48-52.16,12.12-56.1,12.12h-256.42c-17.42,0-31.59-14.11-31.59-31.47v-206.44c0-17.41,14.17-31.57,31.59-31.57h217.5c17.41,0,31.57,14.16,31.57,31.57s-14.16,31.69-31.57,31.69h-184.74v143.07c90.13,0,144.71,0,175.68.11,25.14,0,35.72.07,39.71.09h2.09c23.79-2.3,47.06-7.36,69.14-15.02,57.83-19.86,108.24-57.04,149.84-110.52,2.2-2.89,5.57-7.39,8.8-12.41l.3-.44c.92-1.31,1.6-2.35,2.21-3.35l.08-.13c18.15-28.55,36.49-68.46,54.23-107.05,1.05-2.29,2.1-4.55,3.14-6.79l.41-.88c1.85-3.98,3.6-7.74,5.29-11.51.65-1.43,1.39-3.02,2.14-4.54C3313.3,58.33,3344.05.41,3392.45,0h.12c48.8.41,79.61,58.39,117.8,140.26.68,1.38,1.43,3,2.02,4.27,1.74,3.9,3.49,7.66,5.34,11.65l.43.91c1.03,2.23,2.08,4.47,3.12,6.75l.11.24c17.75,38.58,36.07,78.42,54.05,106.69l.05.09c.83,1.35,1.63,2.52,2.36,3.59l.24.36c2.51,3.89,5.25,7.75,8.89,12.52,41.39,53.22,91.79,90.43,149.76,110.52,16.55,5.67,33.38,9.88,50.01,12.5,8.6,1.32,18.41,1.99,30.86,2.1h.09c17.49,0,46.28.11,46.57.11h185.14c16.91,0,30.75,13.4,31.53,30.18.03.54.04,1.08.04,1.63Z"/>
      </g>
      <g>
        <path class="cls-1" d="m1349.18,2.93h-247.53l-1.2.05c-33.83,2.85-66.91,10.21-98.33,21.85l-6.61,2.39c-19.71,7.72-39.01,17.33-57.38,28.56-40.25,24.67-76.55,57.84-107.88,98.62-7.97,10.44-16.11,23.11-24.9,38.74l-.07.12c-.31.57-.61,1.12-.92,1.67l-.07.13c-.43.77-.86,1.54-1.22,2.21-15.03,27.26-29.61,59.16-43.71,90.01l-.83,1.81-2.68,3.53v2.36l-.43.93c-4.14,9.07-8.82,19.35-13.91,30.09l-.26.59c-.46,1.11-1.03,2.33-1.58,3.53-13.44,28.41-24.58,49.73-34.05,65.16-9.85,16.05-15.8,22.18-18.49,24.42-4.66-3.78-19.42-20.13-52.32-89.63-.65-1.41-1.32-2.86-1.96-4.12-4.47-9.55-8.77-18.95-12.54-27.2l-4.85-10.82c-13.11-28.96-27.96-61.78-43.87-90.57l-.2-.38c-.69-1.27-1.47-2.72-2.21-3.99-8.98-15.95-17.11-28.6-24.87-38.65-31.3-40.61-67.46-73.76-107.47-98.54-18.59-11.47-37.88-21.19-57.34-28.89l-1.34-.47c-31.19-12.19-64.21-20.08-98.14-23.45l-.71-.07H31.6C14.18,2.93.02,17.09.02,34.51s14.17,31.47,31.57,31.47l230.52.11c24.97,0,48.64,3.36,70.3,9.97,6.18,1.94,11.19,3.66,15.77,5.4l.1.04c55.48,20.21,104.19,57.28,144.78,110.17,3.35,4.37,7.01,9.69,11.19,16.25l.09.13c.3.45.63,1.02.98,1.61l.13.22c.36.61.72,1.23,1.08,1.8,17.19,28.12,34.62,66.47,51.5,103.61l.74,1.62c2.12,4.59,4.2,9.13,6.24,13.58l3.51,7.65c.21.45.4.89.61,1.4.43.99.85,1.95,1.33,2.93,37.84,81.81,68.38,139.76,116.9,140.31h.08s.08,0,.08,0c25.31-.27,46.68-15.57,69.3-49.63,14.78-22.55,29.64-52.62,47.42-90.83l.24-.55c.41-.99.93-2.11,1.53-3.42l.13-.28c3.01-6.64,6.07-13.27,9.75-21.24l.15-.33c17.04-37.6,34.66-76.48,52.04-104.8l.4-.7c.5-.92,1.1-1.92,1.84-3.03l.21-.33c3.42-5.52,7.13-10.9,11.01-15.97,40.35-52.68,89-89.76,144.63-110.2,11.4-4.21,23.29-7.76,35.35-10.54,14.14-3.28,29.65-4.94,46.09-4.94h241.57c17.41,0,31.57-14.12,31.57-31.47s-14.16-31.58-31.57-31.58Z"/>
        <path class="cls-2" d="m4080.98,444.37c0,.5-.01.99-.04,1.49-.85,16.61-14.66,29.85-31.53,29.85h-249.6c-4.2,0-41.17-7.56-56.87-12.19l-1.03-.33c-13.41-3.62-25.07-7.32-36.65-11.63l-1.25-.4c-17.81-6.7-35.01-14.81-51.12-24.1-44.27-25.05-83.69-59.54-117.13-102.49-7.11-9.09-14.6-20.48-22.9-34.8l-.74-1.28c-.61-1.02-1.22-2.06-1.81-3.15-16.01-28.36-31.57-61.86-45.34-91.58l-2.93-6.46c-3.62-8-8.15-17.77-14.19-30.56-.54-1.07-1.11-2.28-1.78-3.73l-.27-.58c-13.49-28.25-24.74-49.56-34.37-65.07-10.4-16.76-16.46-22.74-19.05-24.77-4.48,3.53-19.29,19.48-52.9,89.98l-.21.45c-.53,1.14-1.19,2.56-1.86,3.88-3.44,7.25-6.75,14.39-9.94,21.3l-.85,1.83c-.9,1.95-1.79,3.88-2.67,5.76l-3.37,7.4c-14.91,32.62-29.63,64.21-45.42,92.3l-.28.49c-.73,1.17-1.36,2.26-1.98,3.42l-.26.45c-8.3,14.13-15.8,25.47-22.92,34.68-33.58,43.09-72.91,77.6-116.91,102.58-15.97,9.12-33.43,17.29-51.89,24.26l-1.33.5-.61.1c-11.89,4.54-23.38,7.77-34.15,10.7-.83.29-1.81.6-2.98.92-15.21,4.48-52.16,12.12-56.1,12.12h-7.5v-13.61l-3.22-19.94-.92.09-2.71-28.57,7.47-.71c24.04-2.28,47.54-7.36,69.84-15.1,57.83-19.86,108.23-57.04,149.84-110.52,3.59-4.71,6.32-8.55,8.8-12.4l.3-.45c.93-1.33,1.61-2.36,2.21-3.35l.08-.13c18.15-28.56,36.49-68.46,54.23-107.06,1.04-2.26,2.08-4.51,3.11-6.73l.4-.86c1.87-4,3.63-7.78,5.32-11.58.62-1.33,1.38-2.99,2.16-4.56C3313.3,58.45,3344.05.54,3392.45.13h.12c48.79.41,79.61,58.39,117.8,140.26.54,1.09,1.18,2.45,2.02,4.28,1.75,3.92,3.51,7.7,5.38,11.71l.38.82c1.04,2.23,2.09,4.49,3.13,6.77l.08.17c17.74,38.58,36.08,78.45,54.07,106.76l.06.09c.69,1.11,1.37,2.15,2.35,3.57l.26.39c2.47,3.84,5.22,7.7,8.88,12.51,41.38,53.22,91.78,90.42,149.76,110.52,16.55,5.67,33.38,9.88,50.01,12.5,8.63,1.33,18.44,2,30.85,2.1,17.32-.02,46.38.11,46.67.11h185.14c16.87,0,30.68,13.34,31.53,30.05.03.54.04,1.08.04,1.63Z"/>
      </g>
    </g>
  </g>
</svg>