<svg width="85" height="35" viewBox="0 0 85 35" fill="none" xmlns="http://www.w3.org/2000/svg">
<path d="M77.437 26.9403C74.7354 26.9403 71.9519 25.6347 69.7936 23.3573L69.775 23.335L57.934 9.82653C57.2902 9.15148 56.3934 8.76573 55.4705 8.76573C53.9113 8.76573 52.6424 10.0565 52.6424 11.644V22.4708C52.6424 22.8974 52.3001 23.246 51.8796 23.246C51.4591 23.246 51.1167 22.8974 51.1167 22.4708V11.644C51.1167 9.20341 53.0703 7.21533 55.4705 7.21533C56.8139 7.21533 58.1163 7.77911 59.0429 8.76202L59.0615 8.78428L70.9025 22.2928C72.7706 24.2623 75.1522 25.3899 77.437 25.3899C77.8575 25.3899 78.1999 25.7385 78.1999 26.1651C78.1999 26.5916 77.8575 26.9403 77.437 26.9403Z" fill="#5C198D"/>
<path fill-rule="evenodd" clip-rule="evenodd" d="M23.8892 26.1614C23.8892 26.5879 24.2315 26.9366 24.652 26.9366C24.6735 26.9366 24.6948 26.9357 24.7158 26.9339C24.7388 26.936 24.7621 26.9371 24.7857 26.9371H35.2275C35.648 26.9371 35.9903 26.5884 35.9903 26.1619C35.9903 25.7354 35.648 25.3867 35.2275 25.3867H25.4149V17.6929H35.227C35.6475 17.6929 35.9899 17.3442 35.9899 16.9177C35.9899 16.4912 35.6475 16.1425 35.227 16.1425H25.4149V8.76912H35.227C35.6475 8.76912 35.9899 8.42046 35.9899 7.99392C35.9899 7.56737 35.6475 7.21872 35.227 7.21872H24.7853C24.7693 7.21872 24.7534 7.21922 24.7377 7.22021C24.7096 7.21699 24.681 7.21533 24.652 7.21533C24.2315 7.21533 23.8892 7.56399 23.8892 7.99053V26.1614Z" fill="#5C198D"/>
<path fill-rule="evenodd" clip-rule="evenodd" d="M39.0053 25.9736C39.0021 25.9451 39.0005 25.9162 39.0005 25.8869V7.99053C39.0005 7.56399 39.3428 7.21533 39.7633 7.21533C40.1838 7.21533 40.5262 7.56399 40.5262 7.99053V25.2501H51.6C54.1416 25.2501 56.6087 24.1819 58.3763 22.3199L62.3878 18.0953C62.6818 17.7874 63.1618 17.78 63.467 18.0767C63.7684 18.3735 63.7796 18.8631 63.4856 19.1746L59.4741 23.3993C57.4237 25.5617 54.5546 26.8042 51.6037 26.8042L51.6 26.8005H39.7664C39.3459 26.8005 39.0036 26.4519 39.0036 26.0253C39.0036 26.008 39.0041 25.9907 39.0053 25.9736Z" fill="#5C198D"/>
<path fill-rule="evenodd" clip-rule="evenodd" d="M7.56315 26.9221C7.14265 26.9221 6.80029 26.5735 6.80029 26.1469V7.57549C6.80029 7.14895 7.14265 6.80029 7.56315 6.80029C7.98365 6.80029 8.326 7.14895 8.326 7.57549V20.0686C10.0687 17.2808 13.1333 15.4275 16.617 15.4275H18.712V10.0976H18.7466V7.85446C18.7466 7.42791 19.0889 7.07926 19.5094 7.07926C19.9299 7.07926 20.2723 7.42791 20.2723 7.85446V26.4259C20.2723 26.8524 19.9299 27.2011 19.5094 27.2011C19.0889 27.2011 18.7466 26.8524 18.7466 26.4259V16.9779H16.617C12.0436 16.9779 8.32605 20.7612 8.32605 25.4087H8.326V26.1469C8.326 26.5735 7.98365 26.9221 7.56315 26.9221Z" fill="#5C198D"/>
<path d="M66.8201 15.2906C66.6303 15.2906 66.4406 15.2201 66.2917 15.0754C65.9866 14.7787 65.9791 14.2891 66.2694 13.9775L69.3171 10.758C71.4493 8.50663 74.3184 7.21216 77.1912 7.21216C77.6117 7.21216 77.9541 7.56081 77.9541 7.98736C77.9541 8.4139 77.6117 8.76256 77.1912 8.76256C74.7315 8.76256 72.2643 9.8827 70.4186 11.83L67.3709 15.0495C67.222 15.209 67.0211 15.2869 66.8201 15.2869V15.2906Z" fill="#FF76E1"/>
</svg>
