<svg width="20" height="20" viewBox="0 0 20 20" fill="none" xmlns="http://www.w3.org/2000/svg">
<g clip-path="url(#clip0_457_260)">
<path fill-rule="evenodd" clip-rule="evenodd" d="M9.98056 1C5.02376 1 1 5.02376 1 9.98056C1 11.73 1.48596 13.4017 2.43845 14.8596L1.07775 17.8726C0.961123 18.1447 1 18.4752 1.19438 18.7084C1.34989 18.8834 1.56371 18.9806 1.79698 18.9806C1.87473 18.9806 1.93305 18.9806 2.0108 18.9611L5.78186 17.9309C7.08423 18.6307 8.54212 19 10.0194 19C14.9762 19 19 14.9762 19 10.0194C18.9611 5.02376 14.9374 1 9.98056 1ZM9.98056 17.406C8.65875 17.406 7.37581 17.0562 6.24838 16.3952C6.13175 16.3175 5.99568 16.2786 5.85961 16.2786C5.78186 16.2786 5.72354 16.2786 5.64579 16.2981L3.17711 16.9784L4.0324 15.0929C4.14903 14.8402 4.11015 14.5292 3.95464 14.3153C3.04104 13.0518 2.55508 11.5551 2.55508 9.98056C2.55508 5.89849 5.89849 2.55508 9.98056 2.55508C14.0626 2.55508 17.406 5.87905 17.406 9.98056C17.406 14.0626 14.0821 17.406 9.98056 17.406Z" fill="#0F0412" stroke="#FFF5EE" stroke-width="0.2"/>
<path fill-rule="evenodd" clip-rule="evenodd" d="M13.401 11.4281C13.0267 11.1734 12.5145 10.8974 12.081 11.1097C11.7461 11.2583 11.5097 11.8527 11.293 12.1499C11.1748 12.2985 11.0369 12.3197 10.8596 12.256C9.55935 11.7041 8.57431 10.77 7.86508 9.49628C7.74687 9.30522 7.76658 9.13539 7.90448 8.94433C8.12119 8.66836 8.397 8.34992 8.4561 7.98903C8.51521 7.62814 8.3576 7.18234 8.21969 6.86391C8.04239 6.43933 7.84538 5.84492 7.45136 5.61141C7.09675 5.39912 6.62393 5.50526 6.30872 5.80247C5.7571 6.29073 5.48128 7.05497 5.50099 7.79797C5.50099 8.01026 5.52069 8.22255 5.57979 8.43484C5.69799 8.9231 5.895 9.39014 6.15111 9.83594C6.32842 10.1756 6.52543 10.494 6.74213 10.7912C7.43166 11.8102 8.2985 12.6806 9.28354 13.3387C9.77606 13.6571 10.3277 13.9543 10.8793 14.1454C11.5097 14.3577 12.0613 14.5912 12.7312 14.4638C13.4404 14.3152 14.1299 13.8482 14.4057 13.1264C14.4845 12.9141 14.5239 12.6594 14.4845 12.4471C14.3466 11.9376 13.7556 11.6616 13.401 11.4281Z" fill="#0F0412" stroke="#FFF5EE" stroke-width="0.2"/>
</g>
<defs>
<clipPath id="clip0_457_260">
<rect width="20" height="20" fill="white"/>
</clipPath>
</defs>
</svg>
